<svg xmlns="http://www.w3.org/2000/svg" width="900" height="260" viewBox="0 0 900 260" font-family="Avenir Next, Helvetica, Arial, sans-serif" font-size="12"><rect width="900" height="260" fill="#fffdf7"/><text x="16" y="24" font-size="15" font-weight="700" fill="#2f3a1e">Theo chương: chặn cột trung bình (xanh), ô trống trung bình/20 (xám), số cột lộ trung bình/5 (cam)</text><rect x="68" y="134.60000000000002" width="57.5" height="65.39999999999999" fill="#7fb069"/><text x="96.75" y="130.60000000000002" text-anchor="middle" font-size="10" fill="#2f3a1e">0.44</text><rect x="131.5" y="62" width="57.5" height="138" fill="#9c9c8c"/><text x="160.25" y="58" text-anchor="middle" font-size="10" fill="#2f3a1e">18.4</text><rect x="195" y="67.99999999999997" width="57.5" height="132.00000000000003" fill="#e8a44a"/><text x="223.75" y="63.99999999999997" text-anchor="middle" font-size="10" fill="#2f3a1e">4.4</text><text x="161.25" y="218" text-anchor="middle" fill="#2f3a1e" font-weight="700">Chương 1 · Làm quen</text><rect x="270.5" y="121.7" width="57.5" height="78.3" fill="#7fb069"/><text x="299.25" y="117.7" text-anchor="middle" font-size="10" fill="#2f3a1e">0.52</text><rect x="334" y="107" width="57.5" height="93" fill="#9c9c8c"/><text x="362.75" y="103" text-anchor="middle" font-size="10" fill="#2f3a1e">12.4</text><rect x="397.5" y="73.99999999999999" width="57.5" height="126.00000000000001" fill="#e8a44a"/><text x="426.25" y="69.99999999999999" text-anchor="middle" font-size="10" fill="#2f3a1e">4.2</text><text x="363.75" y="218" text-anchor="middle" fill="#2f3a1e" font-weight="700">Chương 2 · Dời cả cụm</text><rect x="473" y="101.6" width="57.5" height="98.4" fill="#7fb069"/><text x="501.75" y="97.6" text-anchor="middle" font-size="10" fill="#2f3a1e">0.66</text><rect x="536.5" y="122" width="57.5" height="78" fill="#9c9c8c"/><text x="565.25" y="118" text-anchor="middle" font-size="10" fill="#2f3a1e">10.4</text><rect x="600" y="50" width="57.5" height="150" fill="#e8a44a"/><text x="628.75" y="46" text-anchor="middle" font-size="10" fill="#2f3a1e">5.0</text><text x="566.25" y="218" text-anchor="middle" fill="#2f3a1e" font-weight="700">Chương 3 · Bàn kín là thua</text><rect x="675.5" y="78.19999999999999" width="57.5" height="121.80000000000001" fill="#7fb069"/><text x="704.25" y="74.19999999999999" text-anchor="middle" font-size="10" fill="#2f3a1e">0.81</text><rect x="739" y="155" width="57.5" height="45" fill="#9c9c8c"/><text x="767.75" y="151" text-anchor="middle" font-size="10" fill="#2f3a1e">6.0</text><rect x="802.5" y="56" width="57.5" height="144" fill="#e8a44a"/><text x="831.25" y="52" text-anchor="middle" font-size="10" fill="#2f3a1e">4.8</text><text x="768.75" y="218" text-anchor="middle" fill="#2f3a1e" font-weight="700">Chương 4 · Phối hợp</text></svg>